<?xml version="1.0" encoding="UTF-8"?>
<!DOCTYPE svg PUBLIC "-//W3C//DTD SVG 1.1//EN" "http://www.w3.org/Graphics/SVG/1.1/DTD/svg11.dtd">
<svg version="1.2" width="18.79mm" height="18.79mm" viewBox="0 0 1879 1879" preserveAspectRatio="xMidYMid" fill-rule="evenodd" stroke-width="28.222" stroke-linejoin="round" xmlns="http://www.w3.org/2000/svg" xmlns:ooo="http://xml.openoffice.org/svg/export" xmlns:xlink="http://www.w3.org/1999/xlink" xmlns:presentation="http://sun.com/xmlns/staroffice/presentation" xmlns:smil="http://www.w3.org/2001/SMIL20/" xmlns:anim="urn:oasis:names:tc:opendocument:xmlns:animation:1.0" xml:space="preserve">
 <defs class="ClipPathGroup">
  <clipPath id="presentation_clip_path" clipPathUnits="userSpaceOnUse">
   <rect x="0" y="0" width="1879" height="1879"/>
  </clipPath>
  <clipPath id="presentation_clip_path_shrink" clipPathUnits="userSpaceOnUse">
   <rect x="1" y="1" width="1876" height="1876"/>
  </clipPath>
 </defs>
 <defs class="TextShapeIndex">
  <g ooo:slide="id1" ooo:id-list="id3"/>
 </defs>
 <defs class="EmbeddedBulletChars">
  <g id="bullet-char-template-57356" transform="scale(0.00048828125,-0.00048828125)">
   <path d="M 580,1141 L 1163,571 580,0 -4,571 580,1141 Z"/>
  </g>
  <g id="bullet-char-template-57354" transform="scale(0.00048828125,-0.00048828125)">
   <path d="M 8,1128 L 1137,1128 1137,0 8,0 8,1128 Z"/>
  </g>
  <g id="bullet-char-template-10146" transform="scale(0.00048828125,-0.00048828125)">
   <path d="M 174,0 L 602,739 174,1481 1456,739 174,0 Z M 1358,739 L 309,1346 659,739 1358,739 Z"/>
  </g>
  <g id="bullet-char-template-10132" transform="scale(0.00048828125,-0.00048828125)">
   <path d="M 2015,739 L 1276,0 717,0 1260,543 174,543 174,936 1260,936 717,1481 1274,1481 2015,739 Z"/>
  </g>
  <g id="bullet-char-template-10007" transform="scale(0.00048828125,-0.00048828125)">
   <path d="M 0,-2 C -7,14 -16,27 -25,37 L 356,567 C 262,823 215,952 215,954 215,979 228,992 255,992 264,992 276,990 289,987 310,991 331,999 354,1012 L 381,999 492,748 772,1049 836,1024 860,1049 C 881,1039 901,1025 922,1006 886,937 835,863 770,784 769,783 710,716 594,584 L 774,223 C 774,196 753,168 711,139 L 727,119 C 717,90 699,76 672,76 641,76 570,178 457,381 L 164,-76 C 142,-110 111,-127 72,-127 30,-127 9,-110 8,-76 1,-67 -2,-52 -2,-32 -2,-23 -1,-13 0,-2 Z"/>
  </g>
  <g id="bullet-char-template-10004" transform="scale(0.00048828125,-0.00048828125)">
   <path d="M 285,-33 C 182,-33 111,30 74,156 52,228 41,333 41,471 41,549 55,616 82,672 116,743 169,778 240,778 293,778 328,747 346,684 L 369,508 C 377,444 397,411 428,410 L 1163,1116 C 1174,1127 1196,1133 1229,1133 1271,1133 1292,1118 1292,1087 L 1292,965 C 1292,929 1282,901 1262,881 L 442,47 C 390,-6 338,-33 285,-33 Z"/>
  </g>
  <g id="bullet-char-template-9679" transform="scale(0.00048828125,-0.00048828125)">
   <path d="M 813,0 C 632,0 489,54 383,161 276,268 223,411 223,592 223,773 276,916 383,1023 489,1130 632,1184 813,1184 992,1184 1136,1130 1245,1023 1353,916 1407,772 1407,592 1407,412 1353,268 1245,161 1136,54 992,0 813,0 Z"/>
  </g>
  <g id="bullet-char-template-8226" transform="scale(0.00048828125,-0.00048828125)">
   <path d="M 346,457 C 273,457 209,483 155,535 101,586 74,649 74,723 74,796 101,859 155,911 209,963 273,989 346,989 419,989 480,963 531,910 582,859 608,796 608,723 608,648 583,586 532,535 482,483 420,457 346,457 Z"/>
  </g>
  <g id="bullet-char-template-8211" transform="scale(0.00048828125,-0.00048828125)">
   <path d="M -4,459 L 1135,459 1135,606 -4,606 -4,459 Z"/>
  </g>
  <g id="bullet-char-template-61548" transform="scale(0.00048828125,-0.00048828125)">
   <path d="M 173,740 C 173,903 231,1043 346,1159 462,1274 601,1332 765,1332 928,1332 1067,1274 1183,1159 1299,1043 1357,903 1357,740 1357,577 1299,437 1183,322 1067,206 928,148 765,148 601,148 462,206 346,322 231,437 173,577 173,740 Z"/>
  </g>
 </defs>
 <defs class="TextEmbeddedBitmaps"/>
 <g>
  <g id="id2" class="Master_Slide">
   <g id="bg-id2" class="Background"/>
   <g id="bo-id2" class="BackgroundObjects"/>
  </g>
 </g>
 <g class="SlideGroup">
  <g>
   <g id="container-id1">
    <g id="id1" class="Slide" clip-path="url(#presentation_clip_path)">
     <g class="Page">
      <g class="Graphic">
       <g id="id3">
        <rect class="BoundingBox" stroke="none" fill="none" x="0" y="0" width="1879" height="1879"/>
        <path fill="rgb(255,255,255)" stroke="none" d="M 1002,871 L 129,871 C 120,871 113,863 113,854 L 113,683 C 113,673 120,666 129,666 L 1002,666 C 1011,666 1019,673 1019,683 L 1019,854 C 1019,863 1011,871 1002,871 L 1002,871 Z"/>
        <path fill="rgb(255,255,255)" stroke="none" d="M 1442,871 L 1276,871 C 1219,871 1173,825 1173,768 1173,712 1219,666 1276,666 L 1442,666 C 1498,666 1544,712 1544,768 1544,825 1498,871 1442,871 L 1442,871 Z"/>
        <path fill="rgb(254,195,14)" stroke="none" d="M 754,1431 C 754,1606 613,1748 438,1748 264,1748 122,1606 122,1431 122,1257 264,1115 438,1115 613,1115 754,1257 754,1431 L 754,1431 Z"/>
        <path fill="rgb(239,183,13)" stroke="none" d="M 438,1115 C 411,1115 384,1119 359,1125 495,1160 596,1284 596,1431 596,1579 495,1702 359,1738 384,1744 411,1748 438,1748 613,1748 754,1606 754,1431 754,1257 613,1115 438,1115 L 438,1115 Z"/>
        <path fill="rgb(255,255,255)" stroke="none" d="M 1002,558 L 129,558 C 120,558 113,550 113,541 L 113,370 C 113,361 120,353 129,353 L 1002,353 C 1011,353 1019,361 1019,370 L 1019,541 C 1019,550 1011,558 1002,558 L 1002,558 Z"/>
        <path fill="rgb(255,255,255)" stroke="none" d="M 1442,558 L 1276,558 C 1219,558 1173,512 1173,455 1173,399 1219,353 1276,353 L 1442,353 C 1498,353 1544,399 1544,455 1544,512 1498,558 1442,558 L 1442,558 Z"/>
        <path fill="rgb(255,255,255)" stroke="none" d="M 1002,245 L 129,245 C 120,245 113,238 113,228 L 113,57 C 113,48 120,40 129,40 L 1002,40 C 1011,40 1019,48 1019,57 L 1019,228 C 1019,238 1011,245 1002,245 L 1002,245 Z"/>
        <path fill="rgb(255,255,255)" stroke="none" d="M 1442,245 L 1276,245 C 1219,245 1173,199 1173,143 1173,86 1219,40 1276,40 L 1442,40 C 1498,40 1544,86 1544,143 1544,199 1498,245 1442,245 L 1442,245 Z"/>
        <path fill="rgb(237,235,237)" stroke="none" d="M 1442,666 L 1346,666 C 1403,666 1449,712 1449,768 1449,825 1403,871 1346,871 L 1442,871 C 1498,871 1544,825 1544,768 1544,712 1498,666 1442,666 L 1442,666 Z"/>
        <path fill="rgb(237,235,237)" stroke="none" d="M 1442,353 L 1346,353 C 1403,353 1449,399 1449,455 1449,512 1403,558 1346,558 L 1442,558 C 1498,558 1544,512 1544,455 1544,399 1498,353 1442,353 L 1442,353 Z"/>
        <path fill="rgb(237,235,237)" stroke="none" d="M 1442,40 L 1346,40 C 1403,40 1449,86 1449,143 1449,199 1403,245 1346,245 L 1442,245 C 1498,245 1544,199 1544,143 1544,86 1498,40 1442,40 L 1442,40 Z"/>
        <path fill="rgb(255,255,255)" stroke="none" d="M 1764,1305 L 1764,1608 C 1764,1623 1761,1638 1756,1652 1752,1665 1745,1679 1735,1690 1717,1714 1707,1743 1707,1773 L 1707,1823 C 1707,1831 1701,1838 1693,1838 L 1349,1838 C 1341,1838 1335,1831 1335,1823 L 1335,1770 C 1335,1733 1327,1697 1310,1663 L 1265,1569 1122,1289 C 1110,1266 1117,1238 1138,1222 1161,1205 1194,1210 1212,1233 L 1313,1358 1313,797 C 1313,771 1333,747 1360,746 1389,744 1413,766 1414,795 1417,911 1420,1028 1423,1144 1423,1145 1423,1145 1424,1145 1425,1145 1425,1145 1425,1144 L 1425,1125 C 1425,1101 1441,1080 1462,1072 1469,1069 1477,1068 1485,1068 1515,1070 1538,1096 1538,1126 L 1538,1186 C 1538,1187 1539,1188 1540,1188 1541,1188 1542,1187 1542,1186 1548,1170 1561,1158 1577,1153 1583,1151 1590,1150 1597,1150 1627,1151 1651,1177 1651,1208 L 1651,1273 C 1651,1276 1653,1278 1655,1278 1657,1278 1658,1277 1659,1275 1666,1263 1677,1254 1690,1250 1696,1248 1702,1247 1708,1247 1739,1248 1764,1275 1764,1305 L 1764,1305 Z"/>
        <path fill="rgb(237,235,237)" stroke="none" d="M 1690,1250 L 1690,1378 C 1690,1400 1673,1417 1651,1417 L 1651,1273 C 1651,1276 1653,1278 1655,1278 1657,1278 1658,1277 1659,1275 1666,1263 1677,1254 1690,1250 L 1690,1250 Z"/>
        <path fill="rgb(237,235,237)" stroke="none" d="M 1577,1153 L 1577,1282 C 1577,1303 1560,1321 1538,1321 L 1538,1186 C 1538,1187 1539,1188 1540,1188 1541,1188 1542,1187 1542,1186 1548,1170 1561,1158 1577,1153 L 1577,1153 Z"/>
        <path fill="rgb(237,235,237)" stroke="none" d="M 1462,1072 L 1462,1253 C 1462,1274 1445,1292 1423,1292 L 1423,1144 C 1423,1145 1423,1145 1424,1145 1425,1145 1425,1145 1425,1144 L 1425,1125 C 1425,1101 1441,1080 1462,1072 L 1462,1072 Z"/>
        <path fill="rgb(237,235,237)" stroke="none" d="M 1323,824 L 1323,797 C 1323,775 1341,757 1364,757 1386,757 1403,774 1404,796 L 1405,823 C 1405,846 1387,865 1364,865 1341,865 1323,847 1323,824 L 1323,824 Z"/>
        <path fill="rgb(1,84,158)" stroke="none" d="M 1002,639 L 129,639 C 105,639 86,658 86,683 L 86,854 C 86,878 105,898 129,898 L 1002,898 C 1026,898 1046,878 1046,854 L 1046,683 C 1046,658 1026,639 1002,639 L 1002,639 Z M 992,844 L 140,844 140,693 992,693 992,844 992,844 Z"/>
        <path fill="rgb(1,84,158)" stroke="none" d="M 1707,1220 C 1697,1220 1687,1222 1678,1226 L 1678,1206 C 1678,1160 1641,1123 1595,1123 1584,1123 1574,1125 1565,1128 L 1565,1125 C 1565,1079 1528,1041 1482,1041 1470,1041 1458,1044 1447,1049 L 1443,898 C 1477,897 1509,884 1533,860 1558,835 1571,803 1571,768 1571,697 1513,639 1442,639 L 1276,639 C 1241,639 1209,652 1184,677 1160,701 1146,734 1146,768 1146,840 1204,898 1276,898 L 1286,898 1286,1281 1232,1215 C 1218,1197 1197,1186 1174,1185 1152,1183 1130,1192 1114,1207 1088,1232 1082,1270 1098,1301 L 1241,1581 1286,1675 C 1300,1705 1308,1737 1308,1770 L 1308,1838 C 1308,1853 1320,1865 1335,1865 1350,1865 1362,1853 1362,1838 L 1362,1770 C 1362,1729 1353,1688 1335,1652 L 1289,1557 C 1289,1557 1289,1557 1289,1557 L 1146,1277 C 1141,1266 1143,1254 1151,1246 1157,1241 1164,1238 1171,1239 1179,1239 1185,1243 1190,1248 L 1292,1375 C 1299,1384 1311,1387 1322,1383 1333,1379 1340,1369 1340,1358 L 1340,796 C 1340,783 1350,773 1363,773 1376,773 1386,783 1387,795 L 1398,1239 C 1399,1254 1411,1266 1426,1265 1441,1265 1453,1253 1453,1238 L 1452,1237 C 1453,1237 1453,1236 1453,1236 L 1453,1125 C 1453,1108 1466,1095 1482,1095 1498,1095 1511,1108 1511,1125 L 1511,1318 C 1511,1333 1523,1345 1538,1345 1553,1345 1565,1333 1565,1318 L 1565,1206 C 1565,1190 1578,1177 1595,1177 1611,1177 1624,1190 1624,1206 L 1624,1415 C 1624,1430 1636,1442 1651,1442 1666,1442 1678,1430 1678,1415 L 1678,1304 C 1678,1288 1691,1274 1707,1274 1723,1274 1737,1288 1737,1304 L 1737,1608 C 1737,1632 1729,1655 1714,1674 1692,1702 1680,1737 1680,1773 L 1680,1838 C 1680,1853 1692,1865 1707,1865 1722,1865 1734,1853 1734,1838 L 1734,1773 C 1734,1749 1742,1726 1757,1707 1779,1679 1791,1644 1791,1608 L 1791,1304 C 1791,1258 1753,1220 1707,1220 L 1707,1220 Z M 1363,719 C 1321,719 1286,753 1286,796 L 1286,844 1276,844 C 1234,844 1200,810 1200,768 1200,748 1208,729 1223,715 1237,701 1256,693 1276,693 L 1442,693 C 1483,693 1517,727 1517,768 1517,788 1509,807 1495,822 1481,836 1462,844 1442,844 L 1441,794 C 1439,752 1405,719 1363,719 L 1363,719 Z"/>
        <path fill="rgb(1,84,158)" stroke="none" d="M 763,1101 L 678,1186 C 616,1125 531,1088 438,1088 249,1088 95,1242 95,1431 95,1621 249,1775 438,1775 507,1775 574,1754 631,1715 644,1707 647,1690 638,1678 630,1665 613,1662 601,1671 553,1703 497,1721 438,1721 279,1721 149,1591 149,1431 149,1272 279,1142 438,1142 516,1142 587,1173 639,1224 L 438,1426 348,1336 C 338,1325 321,1325 310,1336 299,1347 299,1364 310,1374 L 419,1483 C 424,1488 431,1491 438,1491 445,1491 452,1488 457,1483 L 675,1265 C 708,1312 727,1369 727,1431 727,1495 707,1555 670,1605 661,1617 663,1634 675,1643 687,1652 704,1649 713,1637 758,1578 782,1506 782,1431 782,1355 756,1284 713,1226 L 801,1139 C 811,1128 811,1111 801,1101 790,1090 773,1090 763,1101 L 763,1101 Z"/>
        <path fill="rgb(1,84,158)" stroke="none" d="M 208,795 L 269,795 C 283,795 296,783 296,768 296,753 283,741 269,741 L 208,741 C 193,741 181,753 181,768 181,783 193,795 208,795 L 208,795 Z"/>
        <path fill="rgb(1,84,158)" stroke="none" d="M 181,455 C 181,470 193,482 208,482 L 269,482 C 283,482 296,470 296,455 296,441 283,428 269,428 L 208,428 C 193,428 181,441 181,455 L 181,455 Z"/>
        <path fill="rgb(1,84,158)" stroke="none" d="M 208,170 L 269,170 C 283,170 296,158 296,143 296,128 283,116 269,116 L 208,116 C 193,116 181,128 181,143 181,158 193,170 208,170 L 208,170 Z"/>
        <path fill="rgb(1,84,158)" stroke="none" d="M 370,795 L 671,795 C 686,795 698,783 698,768 698,753 686,741 671,741 L 370,741 C 355,741 343,753 343,768 343,783 355,795 370,795 L 370,795 Z"/>
        <path fill="rgb(1,84,158)" stroke="none" d="M 1002,326 L 296,326 C 281,326 269,338 269,353 269,368 281,380 296,380 L 992,380 992,531 140,531 140,380 188,380 C 202,380 215,368 215,353 215,338 202,326 188,326 L 129,326 C 105,326 86,346 86,370 L 86,541 C 86,565 105,585 129,585 L 1002,585 C 1026,585 1046,565 1046,541 L 1046,370 C 1046,346 1026,326 1002,326 L 1002,326 Z"/>
        <path fill="rgb(1,84,158)" stroke="none" d="M 1276,585 L 1442,585 C 1513,585 1571,527 1571,455 1571,384 1513,326 1442,326 L 1276,326 C 1204,326 1146,384 1146,455 1146,527 1204,585 1276,585 L 1276,585 Z M 1276,380 L 1442,380 C 1483,380 1517,414 1517,455 1517,497 1483,531 1442,531 L 1276,531 C 1234,531 1200,497 1200,455 1200,414 1234,380 1276,380 L 1276,380 Z"/>
        <path fill="rgb(1,84,158)" stroke="none" d="M 593,482 C 608,482 620,470 620,455 620,441 608,428 593,428 L 370,428 C 355,428 343,441 343,455 343,470 355,482 370,482 L 593,482 593,482 Z"/>
        <path fill="rgb(1,84,158)" stroke="none" d="M 1002,13 L 129,13 C 105,13 86,33 86,57 L 86,228 C 86,252 105,272 129,272 L 1002,272 C 1026,272 1046,252 1046,228 L 1046,57 C 1046,33 1026,13 1002,13 L 1002,13 Z M 992,218 L 140,218 140,67 992,67 992,218 992,218 Z"/>
        <path fill="rgb(1,84,158)" stroke="none" d="M 1276,272 L 1442,272 C 1513,272 1571,214 1571,143 1571,71 1513,13 1442,13 L 1419,13 C 1404,13 1392,25 1392,40 1392,55 1404,67 1419,67 L 1442,67 C 1483,67 1517,101 1517,143 1517,184 1483,218 1442,218 L 1276,218 C 1234,218 1200,184 1200,143 1200,101 1234,67 1276,67 L 1304,67 C 1319,67 1331,55 1331,40 1331,25 1319,13 1304,13 L 1276,13 C 1204,13 1146,71 1146,143 1146,214 1204,272 1276,272 L 1276,272 Z"/>
        <path fill="rgb(1,84,158)" stroke="none" d="M 370,170 L 782,170 C 797,170 809,158 809,143 809,128 797,116 782,116 L 370,116 C 355,116 343,128 343,143 343,158 355,170 370,170 L 370,170 Z"/>
       </g>
      </g>
     </g>
    </g>
   </g>
  </g>
 </g>
</svg>