<?xml version="1.0" encoding="UTF-8"?>
<!DOCTYPE svg PUBLIC "-//W3C//DTD SVG 1.1//EN" "http://www.w3.org/Graphics/SVG/1.1/DTD/svg11.dtd">
<svg version="1.2" width="18.79mm" height="18.79mm" viewBox="0 0 1879 1879" preserveAspectRatio="xMidYMid" fill-rule="evenodd" stroke-width="28.222" stroke-linejoin="round" xmlns="http://www.w3.org/2000/svg" xmlns:ooo="http://xml.openoffice.org/svg/export" xmlns:xlink="http://www.w3.org/1999/xlink" xmlns:presentation="http://sun.com/xmlns/staroffice/presentation" xmlns:smil="http://www.w3.org/2001/SMIL20/" xmlns:anim="urn:oasis:names:tc:opendocument:xmlns:animation:1.0" xml:space="preserve">
 <defs class="ClipPathGroup">
  <clipPath id="presentation_clip_path" clipPathUnits="userSpaceOnUse">
   <rect x="0" y="0" width="1879" height="1879"/>
  </clipPath>
  <clipPath id="presentation_clip_path_shrink" clipPathUnits="userSpaceOnUse">
   <rect x="1" y="1" width="1876" height="1876"/>
  </clipPath>
 </defs>
 <defs class="TextShapeIndex">
  <g ooo:slide="id1" ooo:id-list="id3"/>
 </defs>
 <defs class="EmbeddedBulletChars">
  <g id="bullet-char-template-57356" transform="scale(0.00048828125,-0.00048828125)">
   <path d="M 580,1141 L 1163,571 580,0 -4,571 580,1141 Z"/>
  </g>
  <g id="bullet-char-template-57354" transform="scale(0.00048828125,-0.00048828125)">
   <path d="M 8,1128 L 1137,1128 1137,0 8,0 8,1128 Z"/>
  </g>
  <g id="bullet-char-template-10146" transform="scale(0.00048828125,-0.00048828125)">
   <path d="M 174,0 L 602,739 174,1481 1456,739 174,0 Z M 1358,739 L 309,1346 659,739 1358,739 Z"/>
  </g>
  <g id="bullet-char-template-10132" transform="scale(0.00048828125,-0.00048828125)">
   <path d="M 2015,739 L 1276,0 717,0 1260,543 174,543 174,936 1260,936 717,1481 1274,1481 2015,739 Z"/>
  </g>
  <g id="bullet-char-template-10007" transform="scale(0.00048828125,-0.00048828125)">
   <path d="M 0,-2 C -7,14 -16,27 -25,37 L 356,567 C 262,823 215,952 215,954 215,979 228,992 255,992 264,992 276,990 289,987 310,991 331,999 354,1012 L 381,999 492,748 772,1049 836,1024 860,1049 C 881,1039 901,1025 922,1006 886,937 835,863 770,784 769,783 710,716 594,584 L 774,223 C 774,196 753,168 711,139 L 727,119 C 717,90 699,76 672,76 641,76 570,178 457,381 L 164,-76 C 142,-110 111,-127 72,-127 30,-127 9,-110 8,-76 1,-67 -2,-52 -2,-32 -2,-23 -1,-13 0,-2 Z"/>
  </g>
  <g id="bullet-char-template-10004" transform="scale(0.00048828125,-0.00048828125)">
   <path d="M 285,-33 C 182,-33 111,30 74,156 52,228 41,333 41,471 41,549 55,616 82,672 116,743 169,778 240,778 293,778 328,747 346,684 L 369,508 C 377,444 397,411 428,410 L 1163,1116 C 1174,1127 1196,1133 1229,1133 1271,1133 1292,1118 1292,1087 L 1292,965 C 1292,929 1282,901 1262,881 L 442,47 C 390,-6 338,-33 285,-33 Z"/>
  </g>
  <g id="bullet-char-template-9679" transform="scale(0.00048828125,-0.00048828125)">
   <path d="M 813,0 C 632,0 489,54 383,161 276,268 223,411 223,592 223,773 276,916 383,1023 489,1130 632,1184 813,1184 992,1184 1136,1130 1245,1023 1353,916 1407,772 1407,592 1407,412 1353,268 1245,161 1136,54 992,0 813,0 Z"/>
  </g>
  <g id="bullet-char-template-8226" transform="scale(0.00048828125,-0.00048828125)">
   <path d="M 346,457 C 273,457 209,483 155,535 101,586 74,649 74,723 74,796 101,859 155,911 209,963 273,989 346,989 419,989 480,963 531,910 582,859 608,796 608,723 608,648 583,586 532,535 482,483 420,457 346,457 Z"/>
  </g>
  <g id="bullet-char-template-8211" transform="scale(0.00048828125,-0.00048828125)">
   <path d="M -4,459 L 1135,459 1135,606 -4,606 -4,459 Z"/>
  </g>
  <g id="bullet-char-template-61548" transform="scale(0.00048828125,-0.00048828125)">
   <path d="M 173,740 C 173,903 231,1043 346,1159 462,1274 601,1332 765,1332 928,1332 1067,1274 1183,1159 1299,1043 1357,903 1357,740 1357,577 1299,437 1183,322 1067,206 928,148 765,148 601,148 462,206 346,322 231,437 173,577 173,740 Z"/>
  </g>
 </defs>
 <defs class="TextEmbeddedBitmaps"/>
 <g>
  <g id="id2" class="Master_Slide">
   <g id="bg-id2" class="Background"/>
   <g id="bo-id2" class="BackgroundObjects"/>
  </g>
 </g>
 <g class="SlideGroup">
  <g>
   <g id="container-id1">
    <g id="id1" class="Slide" clip-path="url(#presentation_clip_path)">
     <g class="Page">
      <g class="Graphic">
       <g id="id3">
        <rect class="BoundingBox" stroke="none" fill="none" x="0" y="0" width="1879" height="1879"/>
        <path fill="rgb(255,255,255)" stroke="none" d="M 69,1838 L 398,1838 398,614 149,614 C 89,614 40,663 40,723 L 40,1809 C 40,1825 53,1838 69,1838 L 69,1838 Z"/>
        <path fill="rgb(237,235,237)" stroke="none" d="M 290,614 L 398,614 398,1838 290,1838 290,614 290,614 Z"/>
        <path fill="rgb(190,216,251)" stroke="none" d="M 398,777 L 232,777 C 216,777 203,790 203,806 L 204,939 C 204,955 217,968 233,968 L 398,968 398,777 398,777 Z"/>
        <path fill="rgb(190,216,251)" stroke="none" d="M 398,1131 L 232,1131 C 216,1131 203,1144 203,1160 L 204,1294 C 204,1309 217,1322 233,1322 L 398,1322 398,1131 398,1131 Z"/>
        <path fill="rgb(157,198,251)" stroke="none" d="M 290,777 L 398,777 398,968 290,968 290,777 290,777 Z"/>
        <path fill="rgb(157,198,251)" stroke="none" d="M 290,1131 L 398,1131 398,1322 290,1322 290,1131 290,1131 Z"/>
        <path fill="rgb(190,216,251)" stroke="none" d="M 398,1484 L 232,1484 C 216,1484 203,1497 203,1513 L 204,1646 C 204,1662 217,1675 233,1675 L 398,1675 398,1484 398,1484 Z"/>
        <path fill="rgb(157,198,251)" stroke="none" d="M 290,1484 L 398,1484 398,1675 290,1675 290,1484 290,1484 Z"/>
        <path fill="rgb(255,255,255)" stroke="none" d="M 1480,1838 L 1209,1838 939,1783 669,1838 397,1838 397,469 C 397,409 445,360 505,360 L 1371,360 C 1431,360 1480,409 1480,469 L 1480,1838 1480,1838 Z"/>
        <path fill="rgb(237,235,237)" stroke="none" d="M 1371,360 L 1263,360 C 1323,360 1371,409 1371,469 L 1371,1838 1480,1838 1480,469 C 1480,409 1431,360 1371,360 L 1371,360 Z"/>
        <path fill="rgb(254,195,14)" stroke="none" d="M 939,680 C 1116,680 1259,537 1259,360 1259,184 1116,40 939,40 762,40 619,184 619,360 619,537 762,680 939,680 L 939,680 Z"/>
        <path fill="rgb(239,183,13)" stroke="none" d="M 939,40 C 921,40 902,42 885,45 1035,71 1151,202 1151,360 1151,518 1035,650 885,676 902,679 921,680 939,680 1115,680 1259,537 1259,360 1259,184 1115,40 939,40 L 939,40 Z"/>
        <path fill="rgb(255,255,255)" stroke="none" d="M 1129,306 L 1004,306 C 998,306 993,301 993,295 L 993,171 C 993,159 984,149 972,149 L 906,149 C 894,149 885,159 885,171 L 885,295 C 885,301 880,306 874,306 L 749,306 C 737,306 727,316 727,328 L 727,393 C 727,405 737,415 749,415 L 874,415 C 880,415 885,419 885,425 L 885,550 C 885,562 894,572 906,572 L 972,572 C 984,572 993,562 993,550 L 993,425 C 993,419 998,415 1004,415 L 1129,415 C 1141,415 1151,405 1151,393 L 1151,328 C 1151,316 1141,306 1129,306 L 1129,306 Z"/>
        <path fill="rgb(254,195,14)" stroke="none" d="M 669,1306 L 1209,1306 1209,1838 669,1838 669,1306 669,1306 Z"/>
        <path fill="rgb(239,183,13)" stroke="none" d="M 1100,1306 L 1209,1306 1209,1838 1100,1838 1100,1306 1100,1306 Z"/>
        <path fill="rgb(190,216,251)" stroke="none" d="M 829,1035 L 588,1035 C 572,1035 559,1022 559,1006 L 560,872 C 560,856 573,843 589,843 L 829,843 C 845,843 858,856 858,872 L 858,1006 C 858,1022 845,1035 829,1035 L 829,1035 Z"/>
        <path fill="rgb(157,198,251)" stroke="none" d="M 829,843 L 720,843 C 736,843 749,856 749,872 L 749,1006 C 749,1022 736,1035 720,1035 L 829,1035 C 845,1035 858,1022 858,1006 L 858,872 C 858,856 845,843 829,843 L 829,843 Z"/>
        <path fill="rgb(190,216,251)" stroke="none" d="M 1049,843 L 1289,843 C 1305,843 1318,856 1318,872 L 1317,1006 C 1317,1022 1304,1035 1288,1035 L 1049,1035 C 1033,1035 1020,1022 1020,1006 L 1020,872 C 1020,856 1033,843 1049,843 L 1049,843 Z"/>
        <path fill="rgb(157,198,251)" stroke="none" d="M 1289,843 L 1180,843 C 1196,843 1209,856 1209,872 L 1209,1006 C 1209,1022 1196,1035 1180,1035 L 1288,1035 C 1304,1035 1317,1022 1317,1006 L 1318,872 C 1318,856 1305,843 1289,843 L 1289,843 Z"/>
        <path fill="rgb(255,255,255)" stroke="none" d="M 1809,1838 L 1480,1838 1480,614 1729,614 C 1789,614 1838,663 1838,723 L 1838,1809 C 1838,1825 1825,1838 1809,1838 L 1809,1838 Z"/>
        <path fill="rgb(237,235,237)" stroke="none" d="M 1729,614 L 1621,614 C 1681,614 1729,663 1729,723 L 1729,1809 C 1729,1825 1716,1838 1700,1838 L 1809,1838 C 1825,1838 1838,1825 1838,1809 L 1838,723 C 1838,663 1789,614 1729,614 L 1729,614 Z"/>
        <path fill="rgb(190,216,251)" stroke="none" d="M 1480,777 L 1646,777 C 1662,777 1675,790 1675,806 L 1674,939 C 1674,955 1661,968 1645,968 L 1480,968 Z"/>
        <path fill="rgb(190,216,251)" stroke="none" d="M 1480,1131 L 1646,1131 C 1662,1131 1675,1144 1675,1160 L 1674,1294 C 1674,1309 1661,1322 1645,1322 L 1480,1322 1480,1131 1480,1131 Z"/>
        <path fill="rgb(190,216,251)" stroke="none" d="M 1480,1484 L 1646,1484 C 1662,1484 1675,1497 1675,1513 L 1674,1646 C 1674,1662 1661,1675 1645,1675 L 1480,1675 1480,1484 1480,1484 Z"/>
        <path fill="rgb(254,195,14)" stroke="none" d="M 1241,1197 L 637,1197 C 625,1197 615,1207 615,1219 L 615,1284 C 615,1296 625,1306 637,1306 L 1241,1306 C 1253,1306 1263,1296 1263,1284 L 1263,1219 C 1263,1207 1253,1197 1241,1197 L 1241,1197 Z"/>
        <path fill="rgb(239,183,13)" stroke="none" d="M 1241,1197 L 1133,1197 C 1145,1197 1154,1207 1154,1219 L 1154,1284 C 1154,1296 1145,1306 1133,1306 L 1241,1306 C 1253,1306 1263,1296 1263,1284 L 1263,1219 C 1263,1207 1253,1197 1241,1197 L 1241,1197 Z"/>
        <path fill="rgb(1,84,158)" stroke="none" d="M 1729,587 L 1606,587 C 1591,587 1579,599 1579,614 1579,629 1591,641 1606,641 L 1729,641 C 1774,641 1811,678 1811,723 L 1811,1809 C 1811,1810 1810,1811 1809,1811 L 1507,1811 1507,1702 1645,1702 C 1676,1702 1701,1677 1701,1646 L 1702,1513 C 1702,1482 1677,1456 1646,1456 L 1507,1456 1507,1349 1645,1349 C 1676,1349 1701,1324 1701,1294 L 1702,1160 C 1702,1129 1677,1104 1646,1104 L 1507,1104 1507,995 1645,995 C 1676,995 1701,970 1701,940 L 1702,806 C 1702,775 1677,750 1646,750 L 1507,750 1507,469 C 1507,394 1446,333 1371,333 L 1285,333 C 1271,154 1121,13 939,13 757,13 607,154 593,333 L 505,333 C 430,333 369,394 369,469 L 369,587 149,587 C 74,587 13,648 13,723 L 13,1809 C 13,1840 38,1865 69,1865 L 1809,1865 C 1840,1865 1865,1840 1865,1809 L 1865,723 C 1865,648 1804,587 1729,587 L 1729,587 Z M 1507,804 L 1646,804 C 1646,804 1647,804 1647,804 1648,805 1648,806 1648,806 L 1647,939 C 1647,940 1646,941 1645,941 L 1507,941 1507,804 1507,804 Z M 1507,1158 L 1646,1158 C 1646,1158 1647,1158 1647,1159 1648,1159 1648,1160 1648,1160 L 1647,1293 C 1647,1294 1646,1295 1645,1295 L 1507,1295 1507,1158 1507,1158 Z M 1507,1511 L 1646,1511 C 1646,1511 1647,1511 1647,1511 1648,1512 1648,1512 1648,1512 L 1647,1646 C 1647,1647 1646,1648 1645,1648 L 1507,1648 1507,1511 1507,1511 Z M 369,1648 L 233,1648 C 232,1648 231,1647 231,1646 L 230,1512 C 230,1512 230,1512 231,1511 231,1511 232,1511 232,1511 L 369,1511 369,1648 369,1648 Z M 369,1295 L 233,1295 C 232,1295 231,1294 231,1293 L 230,1160 C 230,1160 230,1159 231,1159 231,1158 232,1158 232,1158 L 369,1158 369,1295 369,1295 Z M 369,941 L 233,941 C 232,941 231,940 231,939 L 230,806 C 230,806 230,805 231,804 231,804 232,804 232,804 L 369,804 369,941 369,941 Z M 369,750 L 232,750 C 201,749 176,775 176,806 L 177,940 C 177,970 202,995 233,995 L 369,995 369,1104 232,1104 C 201,1104 176,1130 176,1160 L 177,1294 C 177,1324 202,1349 233,1349 L 369,1349 369,1456 232,1456 C 201,1456 176,1482 176,1513 L 177,1646 C 177,1677 202,1702 233,1702 L 369,1702 369,1811 69,1811 C 68,1811 67,1810 67,1809 L 67,723 C 67,678 104,641 149,641 L 369,641 369,750 369,750 Z M 939,67 C 1101,67 1232,199 1232,360 1232,522 1101,653 939,653 777,653 646,522 646,360 646,199 777,67 939,67 L 939,67 Z M 1181,1811 L 966,1811 966,1333 1181,1333 1181,1811 1181,1811 Z M 642,1279 L 642,1224 1236,1224 1236,1279 642,1279 642,1279 Z M 1453,1811 L 1236,1811 1236,1333 C 1264,1335 1290,1314 1290,1284 L 1290,1219 C 1290,1192 1268,1170 1241,1170 L 637,1170 C 610,1170 588,1192 588,1219 L 588,1284 C 588,1313 614,1336 642,1333 L 642,1525 C 642,1540 655,1552 669,1552 684,1552 697,1540 697,1525 L 697,1333 912,1333 912,1811 697,1811 697,1652 C 697,1637 684,1624 669,1624 655,1624 642,1637 642,1652 L 642,1811 424,1811 424,469 C 424,424 460,388 505,388 L 593,388 C 607,566 757,708 939,708 1121,708 1271,566 1285,388 L 1371,388 C 1416,388 1453,424 1453,469 L 1453,1811 1453,1811 Z M 858,442 L 858,550 C 858,577 880,599 906,599 L 972,599 C 998,599 1020,577 1020,550 L 1020,442 1129,442 C 1156,442 1178,420 1178,393 L 1178,328 C 1178,301 1156,279 1129,279 L 1020,279 1020,171 C 1020,144 998,122 972,122 L 906,122 C 880,122 858,144 858,171 L 858,279 749,279 C 722,279 700,301 700,328 L 700,393 C 700,420 722,442 749,442 L 858,442 858,442 Z M 755,333 L 874,333 C 895,333 912,316 912,295 L 912,176 966,176 966,295 C 966,316 983,333 1004,333 L 1123,333 1123,388 1004,388 C 983,388 966,405 966,425 L 966,545 912,545 912,425 C 912,405 895,388 874,388 L 755,388 755,333 755,333 Z M 831,1627 C 845,1627 858,1614 858,1599 L 858,1544 C 858,1529 845,1517 831,1517 816,1517 803,1529 803,1544 L 803,1599 C 803,1614 816,1627 831,1627 L 831,1627 Z M 829,816 L 589,816 C 558,816 533,841 533,872 L 532,1005 C 532,1036 558,1062 588,1062 L 829,1062 C 860,1062 885,1037 885,1006 L 885,872 C 885,841 860,816 829,816 L 829,816 Z M 831,1006 C 831,1007 830,1007 829,1007 L 588,1007 C 588,1008 586,1006 587,1006 L 587,872 C 587,871 588,870 589,870 L 829,870 C 830,870 831,871 831,872 L 831,1006 831,1006 Z M 1047,1627 C 1062,1627 1075,1614 1075,1599 L 1075,1544 C 1075,1529 1062,1517 1047,1517 1033,1517 1020,1529 1020,1544 L 1020,1599 C 1020,1614 1033,1627 1047,1627 L 1047,1627 Z M 1289,816 L 1049,816 C 1018,816 993,841 993,872 L 993,1006 C 993,1037 1018,1062 1049,1062 L 1288,1062 C 1319,1062 1344,1037 1344,1006 L 1345,872 C 1345,842 1319,816 1289,816 L 1289,816 Z M 1290,1006 C 1290,1007 1289,1007 1288,1007 L 1049,1007 C 1048,1007 1047,1007 1047,1006 L 1047,872 C 1047,871 1048,870 1049,870 L 1289,870 C 1289,870 1290,870 1290,871 1291,871 1291,872 1291,872 L 1290,1006 1290,1006 Z"/>
       </g>
      </g>
     </g>
    </g>
   </g>
  </g>
 </g>
</svg>