<?xml version="1.0" encoding="UTF-8"?>
<!DOCTYPE svg PUBLIC "-//W3C//DTD SVG 1.1//EN" "http://www.w3.org/Graphics/SVG/1.1/DTD/svg11.dtd">
<svg version="1.2" width="18.79mm" height="18.79mm" viewBox="0 0 1879 1879" preserveAspectRatio="xMidYMid" fill-rule="evenodd" stroke-width="28.222" stroke-linejoin="round" xmlns="http://www.w3.org/2000/svg" xmlns:ooo="http://xml.openoffice.org/svg/export" xmlns:xlink="http://www.w3.org/1999/xlink" xmlns:presentation="http://sun.com/xmlns/staroffice/presentation" xmlns:smil="http://www.w3.org/2001/SMIL20/" xmlns:anim="urn:oasis:names:tc:opendocument:xmlns:animation:1.0" xml:space="preserve">
 <defs class="ClipPathGroup">
  <clipPath id="presentation_clip_path" clipPathUnits="userSpaceOnUse">
   <rect x="0" y="0" width="1879" height="1879"/>
  </clipPath>
  <clipPath id="presentation_clip_path_shrink" clipPathUnits="userSpaceOnUse">
   <rect x="1" y="1" width="1876" height="1876"/>
  </clipPath>
 </defs>
 <defs class="TextShapeIndex">
  <g ooo:slide="id1" ooo:id-list="id3"/>
 </defs>
 <defs class="EmbeddedBulletChars">
  <g id="bullet-char-template-57356" transform="scale(0.00048828125,-0.00048828125)">
   <path d="M 580,1141 L 1163,571 580,0 -4,571 580,1141 Z"/>
  </g>
  <g id="bullet-char-template-57354" transform="scale(0.00048828125,-0.00048828125)">
   <path d="M 8,1128 L 1137,1128 1137,0 8,0 8,1128 Z"/>
  </g>
  <g id="bullet-char-template-10146" transform="scale(0.00048828125,-0.00048828125)">
   <path d="M 174,0 L 602,739 174,1481 1456,739 174,0 Z M 1358,739 L 309,1346 659,739 1358,739 Z"/>
  </g>
  <g id="bullet-char-template-10132" transform="scale(0.00048828125,-0.00048828125)">
   <path d="M 2015,739 L 1276,0 717,0 1260,543 174,543 174,936 1260,936 717,1481 1274,1481 2015,739 Z"/>
  </g>
  <g id="bullet-char-template-10007" transform="scale(0.00048828125,-0.00048828125)">
   <path d="M 0,-2 C -7,14 -16,27 -25,37 L 356,567 C 262,823 215,952 215,954 215,979 228,992 255,992 264,992 276,990 289,987 310,991 331,999 354,1012 L 381,999 492,748 772,1049 836,1024 860,1049 C 881,1039 901,1025 922,1006 886,937 835,863 770,784 769,783 710,716 594,584 L 774,223 C 774,196 753,168 711,139 L 727,119 C 717,90 699,76 672,76 641,76 570,178 457,381 L 164,-76 C 142,-110 111,-127 72,-127 30,-127 9,-110 8,-76 1,-67 -2,-52 -2,-32 -2,-23 -1,-13 0,-2 Z"/>
  </g>
  <g id="bullet-char-template-10004" transform="scale(0.00048828125,-0.00048828125)">
   <path d="M 285,-33 C 182,-33 111,30 74,156 52,228 41,333 41,471 41,549 55,616 82,672 116,743 169,778 240,778 293,778 328,747 346,684 L 369,508 C 377,444 397,411 428,410 L 1163,1116 C 1174,1127 1196,1133 1229,1133 1271,1133 1292,1118 1292,1087 L 1292,965 C 1292,929 1282,901 1262,881 L 442,47 C 390,-6 338,-33 285,-33 Z"/>
  </g>
  <g id="bullet-char-template-9679" transform="scale(0.00048828125,-0.00048828125)">
   <path d="M 813,0 C 632,0 489,54 383,161 276,268 223,411 223,592 223,773 276,916 383,1023 489,1130 632,1184 813,1184 992,1184 1136,1130 1245,1023 1353,916 1407,772 1407,592 1407,412 1353,268 1245,161 1136,54 992,0 813,0 Z"/>
  </g>
  <g id="bullet-char-template-8226" transform="scale(0.00048828125,-0.00048828125)">
   <path d="M 346,457 C 273,457 209,483 155,535 101,586 74,649 74,723 74,796 101,859 155,911 209,963 273,989 346,989 419,989 480,963 531,910 582,859 608,796 608,723 608,648 583,586 532,535 482,483 420,457 346,457 Z"/>
  </g>
  <g id="bullet-char-template-8211" transform="scale(0.00048828125,-0.00048828125)">
   <path d="M -4,459 L 1135,459 1135,606 -4,606 -4,459 Z"/>
  </g>
  <g id="bullet-char-template-61548" transform="scale(0.00048828125,-0.00048828125)">
   <path d="M 173,740 C 173,903 231,1043 346,1159 462,1274 601,1332 765,1332 928,1332 1067,1274 1183,1159 1299,1043 1357,903 1357,740 1357,577 1299,437 1183,322 1067,206 928,148 765,148 601,148 462,206 346,322 231,437 173,577 173,740 Z"/>
  </g>
 </defs>
 <defs class="TextEmbeddedBitmaps"/>
 <g>
  <g id="id2" class="Master_Slide">
   <g id="bg-id2" class="Background"/>
   <g id="bo-id2" class="BackgroundObjects"/>
  </g>
 </g>
 <g class="SlideGroup">
  <g>
   <g id="container-id1">
    <g id="id1" class="Slide" clip-path="url(#presentation_clip_path)">
     <g class="Page">
      <g class="Graphic">
       <g id="id3">
        <rect class="BoundingBox" stroke="none" fill="none" x="0" y="0" width="1879" height="1879"/>
        <defs>
         <clipPath id="clip_path_1" clipPathUnits="userSpaceOnUse">
          <path d="M 31,13 L 1854,13 1854,1865 31,1865 31,13 Z"/>
         </clipPath>
        </defs>
        <g clip-path="url(#clip_path_1)">
         <path fill="rgb(255,255,255)" stroke="none" d="M 1678,1027 C 1678,1474 1315,1836 869,1836 759,1836 655,1814 560,1775 299,1667 107,1427 68,1138 63,1102 60,1065 60,1027 60,581 422,219 869,219 1315,219 1678,581 1678,1027 L 1678,1027 Z"/>
         <path fill="rgb(237,235,237)" stroke="none" d="M 869,219 C 826,219 784,222 743,228 1130,289 1426,623 1426,1027 1426,1431 1130,1766 743,1826 784,1833 826,1836 869,1836 1315,1836 1678,1474 1678,1027 1678,581 1315,219 869,219 L 869,219 Z"/>
         <path fill="rgb(255,255,255)" stroke="none" d="M 1778,967 L 1317,1273 C 1284,1295 1244,1304 1205,1298 1166,1291 1126,1300 1093,1322 L 1031,1363 685,852 770,486 C 777,457 780,428 780,399 780,325 758,251 716,188 706,172 701,155 701,137 701,108 715,79 742,61 778,37 825,42 856,72 L 911,125 C 974,186 1023,260 1053,342 L 1083,423 1390,220 C 1439,187 1506,201 1537,252 1567,300 1552,364 1504,396 1503,396 1503,397 1504,397 1504,398 1504,398 1505,398 1517,393 1530,391 1543,391 1563,391 1583,397 1600,408 1611,415 1622,425 1630,438 1646,462 1651,490 1645,516 1637,557 1607,578 1601,582 1600,583 1600,584 1601,585 1601,585 1601,585 1601,585 1602,586 1603,586 1604,586 1612,584 1621,583 1629,583 1650,583 1671,589 1688,600 1700,608 1711,618 1719,630 1751,678 1738,743 1689,775 1688,776 1687,777 1686,777 1685,778 1685,779 1685,780 1685,780 1686,780 1686,780 1686,780 1687,780 1688,780 1718,770 1750,774 1777,791 1789,799 1799,809 1808,822 1840,871 1827,936 1778,967 L 1778,967 Z"/>
         <path fill="rgb(254,195,14)" stroke="none" d="M 1036,1459 L 841,1588 560,1775 C 299,1667 107,1427 68,1138 L 394,922 593,791 C 616,776 647,782 662,805 L 1050,1390 C 1065,1413 1059,1444 1036,1459 L 1036,1459 Z"/>
         <path fill="rgb(239,183,13)" stroke="none" d="M 1036,1459 L 841,1588 394,922 593,791 C 616,776 647,782 662,805 L 1050,1390 C 1065,1413 1059,1444 1036,1459 L 1036,1459 Z"/>
         <path fill="rgb(237,235,237)" stroke="none" d="M 1600,408 L 1446,490 C 1424,501 1397,495 1382,475 L 1504,397 C 1504,398 1504,398 1505,398 1517,393 1530,391 1543,391 1563,391 1583,397 1600,408 L 1600,408 Z"/>
         <path fill="rgb(237,235,237)" stroke="none" d="M 1688,600 L 1538,680 C 1516,692 1489,686 1475,666 L 1596,588 1601,585 C 1602,586 1603,587 1604,586 1612,584 1621,583 1629,583 1650,583 1671,589 1688,600 L 1688,600 Z"/>
         <path fill="rgb(237,235,237)" stroke="none" d="M 1777,791 L 1644,862 C 1623,874 1595,868 1581,848 L 1686,780 C 1686,780 1687,780 1688,780 1718,770 1750,774 1777,791 L 1777,791 Z"/>
         <path fill="rgb(1,84,158)" stroke="none" d="M 1832,806 C 1813,777 1784,757 1750,750 1772,708 1771,656 1743,614 1723,584 1693,565 1661,558 1667,547 1671,535 1674,522 1681,487 1674,451 1654,422 1635,393 1606,373 1572,365 1594,323 1593,271 1565,229 1524,168 1441,151 1380,192 L 1247,280 C 1176,244 1101,218 1023,204 998,166 969,131 937,100 L 882,47 C 842,8 778,2 732,33 676,70 661,144 698,200 699,202 701,204 702,206 522,243 358,339 236,479 104,631 31,826 31,1027 31,1066 34,1105 39,1142 79,1435 275,1688 548,1801 650,1843 758,1865 869,1865 1044,1865 1213,1811 1355,1709 1495,1610 1599,1472 1657,1312 1662,1297 1654,1280 1639,1275 1624,1269 1608,1277 1603,1292 1549,1442 1451,1570 1322,1662 1189,1757 1032,1807 869,1807 784,1807 702,1794 623,1768 L 857,1612 C 857,1612 857,1612 857,1612 857,1612 857,1612 857,1612 L 1052,1483 1052,1483 C 1069,1472 1081,1454 1085,1434 1089,1413 1085,1392 1074,1375 L 1071,1371 1109,1346 C 1136,1328 1168,1321 1200,1326 1247,1333 1294,1323 1333,1297 L 1646,1090 C 1644,1117 1641,1144 1636,1170 1633,1186 1643,1201 1659,1204 1660,1204 1662,1205 1664,1205 1678,1205 1690,1195 1692,1181 1700,1138 1705,1094 1706,1050 L 1794,991 C 1824,972 1844,942 1851,907 1859,872 1852,836 1832,806 L 1832,806 Z M 1191,317 L 1103,375 1086,328 C 1079,309 1070,290 1061,271 1106,283 1149,298 1191,317 L 1191,317 Z M 279,516 C 396,382 555,291 730,260 758,327 764,403 748,475 L 677,778 C 666,767 652,759 636,755 615,751 594,755 577,767 L 378,898 C 378,898 378,898 378,898 378,898 378,898 378,898 L 91,1088 C 90,1068 89,1048 89,1027 89,840 157,658 279,516 L 279,516 Z M 1029,1422 C 1028,1428 1024,1432 1020,1435 L 1020,1435 849,1549 531,1075 C 523,1062 505,1059 491,1068 478,1076 475,1094 484,1107 L 801,1580 557,1742 C 314,1636 141,1412 99,1151 L 386,962 419,1011 C 425,1019 434,1024 443,1024 448,1024 454,1022 459,1019 472,1010 476,992 467,979 L 434,930 609,815 C 613,812 619,811 624,812 630,813 635,816 638,821 L 1026,1406 C 1029,1411 1030,1417 1029,1422 L 1029,1422 Z M 1795,895 C 1791,915 1779,932 1763,943 L 1662,1010 C 1661,1010 1661,1010 1661,1010 L 1301,1249 C 1274,1267 1241,1274 1209,1269 1163,1262 1116,1272 1077,1298 L 1039,1323 722,843 804,488 C 825,397 814,300 773,217 773,216 773,215 772,214 764,198 756,183 746,168 727,139 735,100 764,81 788,65 821,68 842,88 L 897,142 C 956,199 1003,271 1032,348 L 1062,429 C 1062,429 1062,429 1062,430 1062,430 1062,430 1062,430 1062,431 1063,431 1063,431 1063,433 1064,434 1065,435 1074,448 1091,452 1105,443 L 1412,240 C 1447,217 1494,226 1517,261 1540,296 1531,343 1496,366 L 1469,384 C 1469,384 1469,384 1469,384 L 1409,424 C 1409,424 1409,424 1409,424 1409,424 1409,424 1408,424 1396,433 1393,451 1401,463 1410,477 1428,480 1441,472 L 1501,432 C 1518,421 1538,417 1558,421 1578,425 1595,437 1606,454 1617,470 1621,491 1617,511 1613,530 1602,548 1585,559 L 1498,616 C 1485,625 1482,643 1490,656 1496,664 1505,669 1514,669 1520,669 1525,667 1530,664 L 1544,655 1590,624 C 1625,601 1672,611 1695,646 1718,681 1709,728 1674,751 L 1631,780 C 1630,780 1630,780 1630,780 L 1587,808 C 1574,817 1571,835 1579,848 1585,856 1594,861 1603,861 1609,861 1614,859 1619,856 L 1633,847 C 1633,847 1633,847 1633,847 L 1679,817 C 1696,806 1716,802 1736,806 1756,810 1773,821 1784,838 1795,855 1799,875 1795,895 L 1795,895 Z"/>
        </g>
       </g>
      </g>
     </g>
    </g>
   </g>
  </g>
 </g>
</svg>