<svg xmlns="http://www.w3.org/2000/svg" width="202" height="58" viewBox="0 0 202 58" fill="none"><path d="M67.224 33.956C66.456 34.508 65.472 34.904 64.272 35.144C63.096 35.384 61.884 35.504 60.636 35.504C59.124 35.504 57.684 35.276 56.316 34.82C54.972 34.34 53.784 33.584 52.752 32.552C51.72 31.496 50.892 30.14 50.268 28.484C49.668 26.804 49.368 24.776 49.368 22.4C49.368 19.928 49.704 17.864 50.376 16.208C51.072 14.528 51.96 13.184 53.04 12.176C54.144 11.144 55.368 10.412 56.712 9.98C58.056 9.524 59.4 9.296 60.744 9.296C62.184 9.296 63.396 9.392 64.38 9.584C65.388 9.776 66.216 10.004 66.864 10.268L65.892 14.444C65.34 14.18 64.68 13.988 63.912 13.868C63.168 13.748 62.256 13.688 61.176 13.688C59.184 13.688 57.576 14.396 56.352 15.812C55.152 17.228 54.552 19.424 54.552 22.4C54.552 23.696 54.696 24.884 54.984 25.964C55.272 27.02 55.704 27.932 56.28 28.7C56.88 29.444 57.612 30.032 58.476 30.464C59.364 30.872 60.384 31.076 61.536 31.076C62.616 31.076 63.528 30.968 64.272 30.752C65.016 30.536 65.664 30.26 66.216 29.924L67.224 33.956ZM67.9966 26C67.9966 22.952 68.7406 20.612 70.2286 18.98C71.7166 17.324 73.8046 16.496 76.4926 16.496C77.9326 16.496 79.1806 16.724 80.2366 17.18C81.2926 17.636 82.1686 18.284 82.8646 19.124C83.5606 19.94 84.0766 20.936 84.4126 22.112C84.7726 23.288 84.9526 24.584 84.9526 26C84.9526 29.048 84.2086 31.4 82.7206 33.056C81.2566 34.688 79.1806 35.504 76.4926 35.504C75.0526 35.504 73.8046 35.276 72.7486 34.82C71.6926 34.364 70.8046 33.728 70.0846 32.912C69.3886 32.072 68.8606 31.064 68.5006 29.888C68.1646 28.712 67.9966 27.416 67.9966 26ZM72.8206 26C72.8206 26.792 72.8926 27.524 73.0366 28.196C73.1806 28.868 73.3966 29.456 73.6846 29.96C73.9726 30.464 74.3446 30.86 74.8006 31.148C75.2806 31.412 75.8446 31.544 76.4926 31.544C77.7166 31.544 78.6286 31.1 79.2286 30.212C79.8286 29.324 80.1286 27.92 80.1286 26C80.1286 24.344 79.8526 23.012 79.3006 22.004C78.7486 20.972 77.8126 20.456 76.4926 20.456C75.3406 20.456 74.4406 20.888 73.7926 21.752C73.1446 22.616 72.8206 24.032 72.8206 26Z" fill="#FEC30E"></path><path d="M104.253 35H88.3045V9.8H93.2365V30.608H104.253V35ZM119.639 29.42H111.899L109.991 35H105.059L114.131 9.62H117.767L126.839 35H121.655L119.639 29.42ZM113.159 25.46H118.559L116.687 19.844L115.931 15.884H115.751L114.995 19.88L113.159 25.46ZM145.971 15.668C145.971 16.292 145.887 16.916 145.719 17.54C145.575 18.164 145.323 18.74 144.963 19.268C144.603 19.772 144.135 20.228 143.559 20.636C142.983 21.02 142.287 21.308 141.471 21.5V21.716C142.191 21.836 142.875 22.04 143.523 22.328C144.171 22.616 144.735 23.012 145.215 23.516C145.695 24.02 146.067 24.632 146.331 25.352C146.619 26.072 146.763 26.924 146.763 27.908C146.763 29.204 146.487 30.332 145.935 31.292C145.383 32.228 144.639 32.996 143.703 33.596C142.791 34.196 141.747 34.64 140.571 34.928C139.395 35.216 138.183 35.36 136.935 35.36C136.527 35.36 135.999 35.36 135.351 35.36C134.727 35.36 134.043 35.336 133.299 35.288C132.579 35.264 131.835 35.216 131.067 35.144C130.323 35.072 129.639 34.964 129.015 34.82V9.98C129.471 9.908 129.987 9.836 130.563 9.764C131.163 9.692 131.799 9.632 132.471 9.584C133.143 9.536 133.827 9.5 134.523 9.476C135.243 9.452 135.951 9.44 136.647 9.44C137.823 9.44 138.963 9.536 140.067 9.728C141.195 9.896 142.191 10.208 143.055 10.664C143.943 11.12 144.651 11.756 145.179 12.572C145.707 13.388 145.971 14.42 145.971 15.668ZM136.971 31.292C137.571 31.292 138.147 31.22 138.699 31.076C139.275 30.932 139.779 30.716 140.211 30.428C140.643 30.116 140.991 29.732 141.255 29.276C141.519 28.82 141.651 28.28 141.651 27.656C141.651 26.864 141.495 26.24 141.183 25.784C140.871 25.328 140.463 24.98 139.959 24.74C139.455 24.476 138.891 24.308 138.267 24.236C137.643 24.164 137.019 24.128 136.395 24.128H133.767V31.076C133.887 31.124 134.079 31.16 134.343 31.184C134.607 31.208 134.883 31.232 135.171 31.256C135.483 31.256 135.795 31.268 136.107 31.292C136.443 31.292 136.731 31.292 136.971 31.292ZM135.351 20.384C135.687 20.384 136.071 20.372 136.503 20.348C136.959 20.324 137.331 20.288 137.619 20.24C138.531 19.952 139.311 19.52 139.959 18.944C140.631 18.368 140.967 17.612 140.967 16.676C140.967 16.052 140.847 15.536 140.607 15.128C140.367 14.72 140.043 14.396 139.635 14.156C139.251 13.916 138.807 13.748 138.303 13.652C137.799 13.556 137.271 13.508 136.719 13.508C136.095 13.508 135.519 13.52 134.991 13.544C134.463 13.568 134.055 13.604 133.767 13.652V20.384H135.351Z" fill="white"></path><ellipse cx="21.4815" cy="5.20773" rx="1.23457" ry="1.20773" fill="#FEC30E"></ellipse><ellipse cx="18.0247" cy="9.79729" rx="2.46914" ry="2.41546" fill="#FEC30E"></ellipse><ellipse cx="14.8148" cy="28.3962" rx="2.46914" ry="2.41546" fill="#FEC30E"></ellipse><ellipse cx="25.679" cy="28.3961" rx="1.7284" ry="1.69082" fill="#FEC30E"></ellipse><path fill-rule="evenodd" clip-rule="evenodd" d="M7.90125 34.4346C7.90125 34.4346 7.90125 34.4347 7.90125 34.4348C7.90125 40.9715 13.318 46.2705 20 46.2705C26.682 46.2705 32.0988 40.9715 32.0988 34.4348C32.0988 34.4347 32.0988 34.4346 32.0988 34.4346H7.90125Z" fill="#FEC30E"></path><path fill-rule="evenodd" clip-rule="evenodd" d="M22.7161 9.07251V12.6957H22.7161V15.0488L22.716 15.0488V18.9585C30.2864 20.2208 36.0494 26.6696 36.0494 34.4351C36.0494 43.1062 28.8638 50.1356 20 50.1356C11.1362 50.1356 3.95062 43.1062 3.95062 34.4351H0C0 45.2407 8.95429 54.0003 20 54.0003C31.0457 54.0003 40 45.2407 40 34.4351C40 25.8263 34.3164 18.5161 26.4198 15.8996V12.6957H30.1235V9.07251L22.7161 9.07251Z" fill="white"></path><path d="M54.988 53.0244H50.02V44.6244H51.016V52.1364H54.988V53.0244ZM60.2855 50.6964H57.1895L56.3495 53.0244H55.3655L58.5455 44.4924H59.0015L62.1935 53.0244H61.1495L60.2855 50.6964ZM57.5135 49.8324H59.9855L59.0495 47.2764L58.7495 46.0044H58.7375L58.4375 47.3004L57.5135 49.8324ZM68.3731 46.5444C68.3731 46.7444 68.3411 46.9484 68.2771 47.1564C68.2131 47.3644 68.1171 47.5604 67.9891 47.7444C67.8611 47.9204 67.6971 48.0764 67.4971 48.2124C67.2971 48.3484 67.0611 48.4524 66.7891 48.5244V48.5724C67.0291 48.6124 67.2571 48.6804 67.4731 48.7764C67.6971 48.8724 67.8931 49.0044 68.0611 49.1724C68.2291 49.3404 68.3651 49.5444 68.4691 49.7844C68.5731 50.0244 68.6251 50.3084 68.6251 50.6364C68.6251 51.0684 68.5331 51.4444 68.3491 51.7644C68.1731 52.0764 67.9371 52.3324 67.6411 52.5324C67.3531 52.7324 67.0211 52.8804 66.6451 52.9764C66.2691 53.0724 65.8851 53.1204 65.4931 53.1204C65.3571 53.1204 65.1971 53.1204 65.0131 53.1204C64.8291 53.1204 64.6371 53.1124 64.4371 53.0964C64.2371 53.0884 64.0371 53.0724 63.8371 53.0484C63.6371 53.0324 63.4611 53.0044 63.3091 52.9644V44.6964C63.6051 44.6484 63.9491 44.6084 64.3411 44.5764C64.7331 44.5444 65.1611 44.5284 65.6251 44.5284C65.9371 44.5284 66.2531 44.5564 66.5731 44.6124C66.9011 44.6604 67.1971 44.7604 67.4611 44.9124C67.7251 45.0564 67.9411 45.2604 68.1091 45.5244C68.2851 45.7884 68.3731 46.1284 68.3731 46.5444ZM65.5891 52.2564C65.8451 52.2564 66.0931 52.2284 66.3331 52.1724C66.5731 52.1084 66.7851 52.0124 66.9691 51.8844C67.1531 51.7484 67.2971 51.5844 67.4011 51.3924C67.5131 51.2004 67.5691 50.9724 67.5691 50.7084C67.5691 50.3804 67.5011 50.1164 67.3651 49.9164C67.2371 49.7164 67.0651 49.5604 66.8491 49.4484C66.6411 49.3364 66.4051 49.2604 66.1411 49.2204C65.8771 49.1804 65.6131 49.1604 65.3491 49.1604H64.3051V52.1724C64.3611 52.1884 64.4411 52.2004 64.5451 52.2084C64.6491 52.2164 64.7611 52.2244 64.8811 52.2324C65.0011 52.2404 65.1251 52.2484 65.2531 52.2564C65.3811 52.2564 65.4931 52.2564 65.5891 52.2564ZM64.9291 48.3204C65.0651 48.3204 65.2291 48.3164 65.4211 48.3084C65.6131 48.3004 65.7731 48.2884 65.9011 48.2724C66.0931 48.2084 66.2731 48.1324 66.4411 48.0444C66.6091 47.9484 66.7571 47.8404 66.8851 47.7204C67.0211 47.5924 67.1251 47.4484 67.1971 47.2884C67.2771 47.1204 67.3171 46.9404 67.3171 46.7484C67.3171 46.4844 67.2651 46.2684 67.1611 46.1004C67.0651 45.9244 66.9331 45.7844 66.7651 45.6804C66.5971 45.5764 66.4051 45.5044 66.1891 45.4644C65.9731 45.4164 65.7531 45.3924 65.5291 45.3924C65.2651 45.3924 65.0211 45.4004 64.7971 45.4164C64.5811 45.4244 64.4171 45.4404 64.3051 45.4644V48.3204H64.9291ZM69.9689 48.8244C69.9689 47.4244 70.2649 46.3524 70.8569 45.6084C71.4489 44.8564 72.2929 44.4804 73.3889 44.4804C73.9809 44.4804 74.4929 44.5844 74.9249 44.7924C75.3569 45.0004 75.7129 45.2964 75.9929 45.6804C76.2809 46.0564 76.4929 46.5124 76.6289 47.0484C76.7649 47.5764 76.8329 48.1684 76.8329 48.8244C76.8329 50.2244 76.5329 51.3004 75.9329 52.0524C75.3409 52.7964 74.4929 53.1684 73.3889 53.1684C72.8049 53.1684 72.2969 53.0644 71.8649 52.8564C71.4409 52.6484 71.0849 52.3564 70.7969 51.9804C70.5169 51.5964 70.3089 51.1404 70.1729 50.6124C70.0369 50.0764 69.9689 49.4804 69.9689 48.8244ZM71.0249 48.8244C71.0249 49.2884 71.0689 49.7284 71.1569 50.1444C71.2529 50.5604 71.3969 50.9284 71.5889 51.2484C71.7809 51.5604 72.0249 51.8124 72.3209 52.0044C72.6249 52.1884 72.9809 52.2804 73.3889 52.2804C74.1329 52.2804 74.7169 52.0004 75.1409 51.4404C75.5649 50.8724 75.7769 50.0004 75.7769 48.8244C75.7769 48.3684 75.7289 47.9324 75.6329 47.5164C75.5449 47.0924 75.4009 46.7244 75.2009 46.4124C75.0089 46.0924 74.7609 45.8404 74.4569 45.6564C74.1609 45.4644 73.8049 45.3684 73.3889 45.3684C72.6529 45.3684 72.0729 45.6524 71.6489 46.2204C71.2329 46.7804 71.0249 47.6484 71.0249 48.8244ZM78.52 44.7084C78.824 44.6524 79.172 44.6084 79.564 44.5764C79.964 44.5444 80.328 44.5284 80.656 44.5284C81.024 44.5284 81.372 44.5684 81.7 44.6484C82.036 44.7284 82.328 44.8604 82.576 45.0444C82.832 45.2284 83.036 45.4684 83.188 45.7644C83.34 46.0604 83.416 46.4204 83.416 46.8444C83.416 47.5004 83.236 48.0324 82.876 48.4404C82.516 48.8484 82.06 49.1204 81.508 49.2564L82.084 49.7004L84.172 53.0244H83.008L80.692 49.4004L79.516 49.2204V53.0244H78.52V44.7084ZM80.68 45.3924C80.576 45.3924 80.468 45.3924 80.356 45.3924C80.244 45.3924 80.136 45.3964 80.032 45.4044C79.928 45.4124 79.828 45.4204 79.732 45.4284C79.644 45.4364 79.572 45.4484 79.516 45.4644V48.5604H80.452C81.004 48.5604 81.46 48.4244 81.82 48.1524C82.18 47.8804 82.36 47.4564 82.36 46.8804C82.36 46.4484 82.212 46.0924 81.916 45.8124C81.62 45.5324 81.208 45.3924 80.68 45.3924ZM89.3363 50.6964H86.2403L85.4003 53.0244H84.4163L87.5963 44.4924H88.0523L91.2443 53.0244H90.2003L89.3363 50.6964ZM86.5643 49.8324H89.0363L88.1003 47.2764L87.8003 46.0044H87.7883L87.4883 47.3004L86.5643 49.8324ZM96.9753 45.5124H94.3593V53.0244H93.3633V45.5124H90.7473V44.6244H96.9753V45.5124ZM97.2853 48.8244C97.2853 47.4244 97.5813 46.3524 98.1733 45.6084C98.7653 44.8564 99.6093 44.4804 100.705 44.4804C101.297 44.4804 101.809 44.5844 102.241 44.7924C102.673 45.0004 103.029 45.2964 103.309 45.6804C103.597 46.0564 103.809 46.5124 103.945 47.0484C104.081 47.5764 104.149 48.1684 104.149 48.8244C104.149 50.2244 103.849 51.3004 103.249 52.0524C102.657 52.7964 101.809 53.1684 100.705 53.1684C100.121 53.1684 99.6133 53.0644 99.1813 52.8564C98.7573 52.6484 98.4013 52.3564 98.1133 51.9804C97.8333 51.5964 97.6253 51.1404 97.4893 50.6124C97.3533 50.0764 97.2853 49.4804 97.2853 48.8244ZM98.3413 48.8244C98.3413 49.2884 98.3853 49.7284 98.4733 50.1444C98.5693 50.5604 98.7133 50.9284 98.9053 51.2484C99.0973 51.5604 99.3413 51.8124 99.6373 52.0044C99.9413 52.1884 100.297 52.2804 100.705 52.2804C101.449 52.2804 102.033 52.0004 102.457 51.4404C102.881 50.8724 103.093 50.0004 103.093 48.8244C103.093 48.3684 103.045 47.9324 102.949 47.5164C102.861 47.0924 102.717 46.7244 102.517 46.4124C102.325 46.0924 102.077 45.8404 101.773 45.6564C101.477 45.4644 101.121 45.3684 100.705 45.3684C99.9693 45.3684 99.3893 45.6524 98.9653 46.2204C98.5493 46.7804 98.3413 47.6484 98.3413 48.8244ZM105.836 44.7084C106.14 44.6524 106.488 44.6084 106.88 44.5764C107.28 44.5444 107.644 44.5284 107.972 44.5284C108.34 44.5284 108.688 44.5684 109.016 44.6484C109.352 44.7284 109.644 44.8604 109.892 45.0444C110.148 45.2284 110.352 45.4684 110.504 45.7644C110.656 46.0604 110.732 46.4204 110.732 46.8444C110.732 47.5004 110.552 48.0324 110.192 48.4404C109.832 48.8484 109.376 49.1204 108.824 49.2564L109.4 49.7004L111.488 53.0244H110.324L108.008 49.4004L106.832 49.2204V53.0244H105.836V44.7084ZM107.996 45.3924C107.892 45.3924 107.784 45.3924 107.672 45.3924C107.56 45.3924 107.452 45.3964 107.348 45.4044C107.244 45.4124 107.144 45.4204 107.048 45.4284C106.96 45.4364 106.888 45.4484 106.832 45.4644V48.5604H107.768C108.32 48.5604 108.776 48.4244 109.136 48.1524C109.496 47.8804 109.676 47.4564 109.676 46.8804C109.676 46.4484 109.528 46.0924 109.232 45.8124C108.936 45.5324 108.524 45.3924 107.996 45.3924ZM114.106 49.6884L111.334 44.6244H112.498L114.466 48.2964L114.67 49.0284H114.682L114.898 48.2724L116.782 44.6244H117.85L115.102 49.6764V53.0244H114.106V49.6884ZM122.24 50.7804C122.24 50.4604 122.296 50.1564 122.408 49.8684C122.52 49.5724 122.672 49.3004 122.864 49.0524C123.056 48.8044 123.272 48.5764 123.512 48.3684C123.76 48.1604 124.016 47.9764 124.28 47.8164C124.088 47.5284 123.92 47.2404 123.776 46.9524C123.64 46.6644 123.572 46.3524 123.572 46.0164C123.572 45.8244 123.604 45.6364 123.668 45.4524C123.732 45.2684 123.832 45.1044 123.968 44.9604C124.112 44.8164 124.292 44.7004 124.508 44.6124C124.732 44.5244 125 44.4804 125.312 44.4804C125.64 44.4804 125.916 44.5244 126.14 44.6124C126.364 44.6924 126.544 44.8004 126.68 44.9364C126.816 45.0724 126.912 45.2244 126.968 45.3924C127.032 45.5604 127.064 45.7324 127.064 45.9084C127.064 46.2444 126.932 46.5924 126.668 46.9524C126.412 47.3044 126.004 47.6444 125.444 47.9724C125.572 48.2044 125.72 48.4444 125.888 48.6924C126.064 48.9324 126.248 49.1724 126.44 49.4124C126.632 49.6524 126.828 49.8924 127.028 50.1324C127.228 50.3644 127.428 50.5804 127.628 50.7804C127.716 50.6844 127.804 50.5644 127.892 50.4204C127.98 50.2684 128.064 50.1124 128.144 49.9524C128.232 49.7844 128.308 49.6124 128.372 49.4364C128.444 49.2604 128.508 49.0924 128.564 48.9324L129.308 49.2804C129.26 49.4164 129.192 49.5804 129.104 49.7724C129.016 49.9564 128.916 50.1484 128.804 50.3484C128.7 50.5404 128.592 50.7284 128.48 50.9124C128.368 51.0884 128.264 51.2364 128.168 51.3564C128.336 51.5164 128.488 51.6564 128.624 51.7764C128.76 51.8884 128.884 51.9884 128.996 52.0764C129.116 52.1564 129.228 52.2324 129.332 52.3044C129.444 52.3684 129.556 52.4324 129.668 52.4964L129.068 53.1684C128.644 52.9604 128.16 52.5884 127.616 52.0524C127.472 52.1964 127.312 52.3364 127.136 52.4724C126.968 52.6004 126.776 52.7164 126.56 52.8204C126.344 52.9244 126.104 53.0084 125.84 53.0724C125.584 53.1364 125.3 53.1684 124.988 53.1684C124.612 53.1684 124.256 53.1164 123.92 53.0124C123.592 52.9084 123.304 52.7564 123.056 52.5564C122.808 52.3484 122.608 52.0964 122.456 51.8004C122.312 51.5044 122.24 51.1644 122.24 50.7804ZM127.052 51.4524C126.82 51.2204 126.592 50.9684 126.368 50.6964C126.144 50.4244 125.928 50.1524 125.72 49.8804C125.52 49.6084 125.332 49.3484 125.156 49.1004C124.988 48.8444 124.844 48.6204 124.724 48.4284C124.508 48.5884 124.308 48.7524 124.124 48.9204C123.94 49.0884 123.776 49.2684 123.632 49.4604C123.496 49.6444 123.388 49.8444 123.308 50.0604C123.236 50.2764 123.2 50.5084 123.2 50.7564C123.2 51.0044 123.252 51.2284 123.356 51.4284C123.46 51.6204 123.6 51.7844 123.776 51.9204C123.96 52.0484 124.168 52.1484 124.4 52.2204C124.632 52.2924 124.876 52.3284 125.132 52.3284C125.332 52.3284 125.524 52.3044 125.708 52.2564C125.9 52.2004 126.08 52.1324 126.248 52.0524C126.416 51.9724 126.568 51.8804 126.704 51.7764C126.848 51.6724 126.964 51.5644 127.052 51.4524ZM124.508 46.0164C124.508 46.2564 124.556 46.4964 124.652 46.7364C124.756 46.9684 124.888 47.2004 125.048 47.4324C125.472 47.1604 125.764 46.9124 125.924 46.6884C126.092 46.4644 126.176 46.2684 126.176 46.1004C126.176 45.8444 126.112 45.6364 125.984 45.4764C125.864 45.3164 125.652 45.2364 125.348 45.2364C125.06 45.2364 124.848 45.3084 124.712 45.4524C124.576 45.5964 124.508 45.7844 124.508 46.0164ZM138.609 50.8884C138.609 50.5524 138.509 50.2804 138.309 50.0724C138.109 49.8564 137.857 49.6684 137.553 49.5084C137.257 49.3404 136.933 49.1844 136.581 49.0404C136.229 48.8964 135.901 48.7244 135.597 48.5244C135.301 48.3164 135.053 48.0644 134.853 47.7684C134.653 47.4644 134.553 47.0804 134.553 46.6164C134.553 45.9604 134.781 45.4404 135.237 45.0564C135.693 44.6724 136.341 44.4804 137.181 44.4804C137.669 44.4804 138.113 44.5164 138.513 44.5884C138.913 44.6604 139.225 44.7524 139.449 44.8644L139.149 45.7404C138.965 45.6524 138.693 45.5684 138.333 45.4884C137.981 45.4084 137.581 45.3684 137.133 45.3684C136.605 45.3684 136.209 45.4884 135.945 45.7284C135.681 45.9604 135.549 46.2364 135.549 46.5564C135.549 46.8684 135.649 47.1284 135.849 47.3364C136.049 47.5444 136.297 47.7324 136.593 47.9004C136.897 48.0604 137.225 48.2204 137.577 48.3804C137.929 48.5404 138.253 48.7284 138.549 48.9444C138.853 49.1524 139.105 49.4044 139.305 49.7004C139.505 49.9964 139.605 50.3644 139.605 50.8044C139.605 51.1644 139.541 51.4884 139.413 51.7764C139.285 52.0644 139.097 52.3124 138.849 52.5204C138.601 52.7284 138.301 52.8884 137.949 53.0004C137.597 53.1124 137.197 53.1684 136.749 53.1684C136.149 53.1684 135.653 53.1204 135.261 53.0244C134.869 52.9364 134.565 52.8364 134.349 52.7244L134.685 51.8244C134.869 51.9284 135.141 52.0324 135.501 52.1364C135.861 52.2324 136.265 52.2804 136.713 52.2804C136.977 52.2804 137.225 52.2564 137.457 52.2084C137.689 52.1524 137.889 52.0684 138.057 51.9564C138.225 51.8364 138.357 51.6884 138.453 51.5124C138.557 51.3364 138.609 51.1284 138.609 50.8884ZM146.568 52.6764C146.328 52.8604 146.024 52.9884 145.656 53.0604C145.288 53.1324 144.896 53.1684 144.48 53.1684C143.976 53.1684 143.504 53.0844 143.064 52.9164C142.624 52.7404 142.24 52.4764 141.912 52.1244C141.584 51.7724 141.324 51.3244 141.132 50.7804C140.94 50.2284 140.844 49.5764 140.844 48.8244C140.844 48.0404 140.948 47.3764 141.156 46.8324C141.372 46.2804 141.652 45.8324 141.996 45.4884C142.348 45.1364 142.74 44.8804 143.172 44.7204C143.604 44.5604 144.044 44.4804 144.492 44.4804C144.972 44.4804 145.364 44.5084 145.668 44.5644C145.972 44.6124 146.232 44.6804 146.448 44.7684L146.208 45.6444C145.824 45.4604 145.276 45.3684 144.564 45.3684C144.236 45.3684 143.912 45.4284 143.592 45.5484C143.272 45.6684 142.984 45.8644 142.728 46.1364C142.48 46.4084 142.28 46.7644 142.128 47.2044C141.976 47.6444 141.9 48.1844 141.9 48.8244C141.9 49.4004 141.972 49.9044 142.116 50.3364C142.26 50.7684 142.456 51.1284 142.704 51.4164C142.96 51.7044 143.256 51.9204 143.592 52.0644C143.936 52.2084 144.308 52.2804 144.708 52.2804C145.068 52.2804 145.38 52.2444 145.644 52.1724C145.916 52.1004 146.144 52.0084 146.328 51.8964L146.568 52.6764ZM148.275 44.6244H149.271V53.0244H148.275V44.6244ZM151.54 44.6244H156.112V45.5124H152.536V48.2604H155.812V49.1484H152.536V52.1364H156.172V53.0244H151.54V44.6244ZM159.485 47.5284L158.837 46.3164H158.789L158.909 47.5284V53.0244H157.973V44.4924H158.501L162.521 50.0964L163.145 51.2484H163.205L163.073 50.0964V44.6244H164.009V53.1564H163.481L159.485 47.5284ZM171.423 52.6764C171.183 52.8604 170.879 52.9884 170.511 53.0604C170.143 53.1324 169.751 53.1684 169.335 53.1684C168.831 53.1684 168.359 53.0844 167.919 52.9164C167.479 52.7404 167.095 52.4764 166.767 52.1244C166.439 51.7724 166.179 51.3244 165.987 50.7804C165.795 50.2284 165.699 49.5764 165.699 48.8244C165.699 48.0404 165.803 47.3764 166.011 46.8324C166.227 46.2804 166.507 45.8324 166.851 45.4884C167.203 45.1364 167.595 44.8804 168.027 44.7204C168.459 44.5604 168.899 44.4804 169.347 44.4804C169.827 44.4804 170.219 44.5084 170.523 44.5644C170.827 44.6124 171.087 44.6804 171.303 44.7684L171.063 45.6444C170.679 45.4604 170.131 45.3684 169.419 45.3684C169.091 45.3684 168.767 45.4284 168.447 45.5484C168.127 45.6684 167.839 45.8644 167.583 46.1364C167.335 46.4084 167.135 46.7644 166.983 47.2044C166.831 47.6444 166.755 48.1844 166.755 48.8244C166.755 49.4004 166.827 49.9044 166.971 50.3364C167.115 50.7684 167.311 51.1284 167.559 51.4164C167.815 51.7044 168.111 51.9204 168.447 52.0644C168.791 52.2084 169.163 52.2804 169.563 52.2804C169.923 52.2804 170.235 52.2444 170.499 52.1724C170.771 52.1004 170.999 52.0084 171.183 51.8964L171.423 52.6764ZM172.903 44.6244H177.475V45.5124H173.899V48.2604H177.175V49.1484H173.899V52.1364H177.535V53.0244H172.903V44.6244ZM187.504 53.0244H182.536V44.6244H183.532V52.1364H187.504V53.0244ZM192.801 50.6964H189.705L188.865 53.0244H187.881L191.061 44.4924H191.517L194.709 53.0244H193.665L192.801 50.6964ZM190.029 49.8324H192.501L191.565 47.2764L191.265 46.0044H191.253L190.953 47.3004L190.029 49.8324ZM200.889 46.5444C200.889 46.7444 200.857 46.9484 200.793 47.1564C200.729 47.3644 200.633 47.5604 200.505 47.7444C200.377 47.9204 200.213 48.0764 200.013 48.2124C199.813 48.3484 199.577 48.4524 199.305 48.5244V48.5724C199.545 48.6124 199.773 48.6804 199.989 48.7764C200.213 48.8724 200.409 49.0044 200.577 49.1724C200.745 49.3404 200.881 49.5444 200.985 49.7844C201.089 50.0244 201.141 50.3084 201.141 50.6364C201.141 51.0684 201.049 51.4444 200.865 51.7644C200.689 52.0764 200.453 52.3324 200.157 52.5324C199.869 52.7324 199.537 52.8804 199.161 52.9764C198.785 53.0724 198.401 53.1204 198.009 53.1204C197.873 53.1204 197.713 53.1204 197.529 53.1204C197.345 53.1204 197.153 53.1124 196.953 53.0964C196.753 53.0884 196.553 53.0724 196.353 53.0484C196.153 53.0324 195.977 53.0044 195.825 52.9644V44.6964C196.121 44.6484 196.465 44.6084 196.857 44.5764C197.249 44.5444 197.677 44.5284 198.141 44.5284C198.453 44.5284 198.769 44.5564 199.089 44.6124C199.417 44.6604 199.713 44.7604 199.977 44.9124C200.241 45.0564 200.457 45.2604 200.625 45.5244C200.801 45.7884 200.889 46.1284 200.889 46.5444ZM198.105 52.2564C198.361 52.2564 198.609 52.2284 198.849 52.1724C199.089 52.1084 199.301 52.0124 199.485 51.8844C199.669 51.7484 199.813 51.5844 199.917 51.3924C200.029 51.2004 200.085 50.9724 200.085 50.7084C200.085 50.3804 200.017 50.1164 199.881 49.9164C199.753 49.7164 199.581 49.5604 199.365 49.4484C199.157 49.3364 198.921 49.2604 198.657 49.2204C198.393 49.1804 198.129 49.1604 197.865 49.1604H196.821V52.1724C196.877 52.1884 196.957 52.2004 197.061 52.2084C197.165 52.2164 197.277 52.2244 197.397 52.2324C197.517 52.2404 197.641 52.2484 197.769 52.2564C197.897 52.2564 198.009 52.2564 198.105 52.2564ZM197.445 48.3204C197.581 48.3204 197.745 48.3164 197.937 48.3084C198.129 48.3004 198.289 48.2884 198.417 48.2724C198.609 48.2084 198.789 48.1324 198.957 48.0444C199.125 47.9484 199.273 47.8404 199.401 47.7204C199.537 47.5924 199.641 47.4484 199.713 47.2884C199.793 47.1204 199.833 46.9404 199.833 46.7484C199.833 46.4844 199.781 46.2684 199.677 46.1004C199.581 45.9244 199.449 45.7844 199.281 45.6804C199.113 45.5764 198.921 45.5044 198.705 45.4644C198.489 45.4164 198.269 45.3924 198.045 45.3924C197.781 45.3924 197.537 45.4004 197.313 45.4164C197.097 45.4244 196.933 45.4404 196.821 45.4644V48.3204H197.445Z" fill="white"></path></svg>